<svg width="90" height="91" viewBox="0 0 90 91" fill="none" xmlns="http://www.w3.org/2000/svg">
<path d="M31.6262 72.8359L36.6456 74.6363L36.0681 76.2458L33.0503 75.1633L32.6061 76.4024L35.444 77.4203L34.8665 79.0298L32.0286 78.0119L31.068 80.6912L29.0664 79.9733L31.6262 72.8359Z" fill="black" fill-opacity="0.8"/>
<path d="M38.1455 75.1141C39.0406 75.0941 39.9359 75.1379 40.8248 75.2452C41.7682 75.2672 42.6819 75.5792 43.4416 76.1389C43.6771 76.3575 43.8549 76.631 43.959 76.9351C44.0631 77.2391 44.0904 77.5641 44.0383 77.8813C43.979 78.2818 43.7996 78.655 43.5237 78.9515C43.2479 79.248 42.8886 79.4539 42.4933 79.5419L42.4885 79.5865C42.7246 79.7522 42.9223 79.9667 43.0682 80.2155C43.214 80.4643 43.3046 80.7416 43.3338 81.0285C43.5041 81.8288 43.6373 82.9645 43.7499 83.2714L41.6034 83.0304C41.4129 82.4497 41.2829 81.8508 41.2155 81.2434C41.0823 80.3116 40.8008 80.0988 40.0963 80.0198L39.7159 79.9772L39.4014 82.7832L37.3105 82.5484L38.1455 75.1141ZM39.8834 78.4903L40.5089 78.5604C41.3363 78.6534 41.8657 78.3733 41.9303 77.803C41.9941 77.2331 41.6021 76.8946 40.8866 76.8142C40.6183 76.7755 40.3472 76.7602 40.0763 76.7686L39.8834 78.4903Z" fill="black" fill-opacity="0.8"/>
<path d="M51.5117 79.5761L48.4513 79.9407L48.6045 81.225L52.0219 80.8179L52.2238 82.5156L46.6956 83.1741L45.7988 75.6464L51.1602 75.0078L51.362 76.7055L48.1121 77.0925L48.2488 78.2429L51.3092 77.8783L51.5117 79.5761Z" fill="black" fill-opacity="0.8"/>
<path d="M59.1812 77.179L56.2794 78.2168L56.7148 79.4346L59.955 78.2756L60.5311 79.8854L55.2893 81.7599L52.7363 74.6226L57.8196 72.8047L58.395 74.4145L55.314 75.5166L55.704 76.6073L58.6051 75.5695L59.1812 77.179Z" fill="black" fill-opacity="0.8"/>
<path d="M29.8901 15.8127C29.2757 16.5985 28.5492 17.2899 27.734 17.8648C26.3573 18.8017 25.19 19.1062 24.1772 18.938C23.6938 18.86 23.232 18.6822 22.8212 18.4158C22.4104 18.1495 22.0596 17.8005 21.7911 17.391C20.3162 15.2236 21.2583 12.9086 23.4906 11.3894C24.178 10.8848 24.9601 10.5239 25.7901 10.3281L26.3546 11.9579C25.6473 12.1116 24.9803 12.4124 24.3969 12.8409C23.2997 13.588 22.7181 14.7731 23.5345 15.973C24.2939 17.0892 25.6315 17.2547 26.8407 16.4317C27.065 16.2906 27.269 16.1196 27.447 15.9233L26.7576 14.9094L25.7901 15.5679L24.8721 14.219L27.5603 12.3898L29.8901 15.8127Z" fill="black" fill-opacity="0.8"/>
<path d="M28.9629 8.44866L30.9603 7.71875L32.953 13.1717L36.0285 12.0481L36.6389 13.7176L31.566 15.5716L28.9629 8.44866Z" fill="black" fill-opacity="0.8"/>
<path d="M38.7671 5.65886L39.2388 9.75058C39.3748 10.9357 39.8987 11.6457 40.86 11.5348C41.8213 11.4243 42.1763 10.6697 42.0335 9.42889L41.5624 5.33716L43.6752 5.09375L44.1401 9.12951C44.423 11.589 43.2502 12.9136 40.9589 13.1773C38.8007 13.4259 37.4117 12.4759 37.113 9.88207L36.6543 5.90227L38.7671 5.65886Z" fill="black" fill-opacity="0.8"/>
<path d="M48.6554 7.16838L46.5371 6.88068L46.7705 5.16406L53.1577 6.03095L52.925 7.74757L50.762 7.45403L49.9758 13.2507L47.8685 12.9647L48.6554 7.16838Z" fill="black" fill-opacity="0.8"/>
<path d="M59.302 12.9681L56.4208 11.8715L55.9608 13.0807L59.1784 14.3053L58.57 15.9035L53.3652 13.9225L56.0624 6.83594L61.1092 8.75683L60.5009 10.355L57.4412 9.19045L57.0292 10.2733L59.9103 11.3699L59.302 12.9681Z" fill="black" fill-opacity="0.8"/>
<path d="M59.8281 16.4864L64.1959 10.2891L66.3746 11.8251L66.1322 14.3372C66.0217 15.388 65.8349 16.4294 65.5733 17.4532L65.6014 17.4724C66.0977 16.5705 66.6506 15.7009 67.2569 14.869L68.3974 13.2506L70.0069 14.3846L65.6392 20.5819L63.7358 19.2405L64.0593 16.3995C64.1696 15.3111 64.3351 14.2289 64.555 13.1572L64.5186 13.1315C63.9034 14.1017 63.2779 15.0091 62.6166 15.947L61.437 17.6204L59.8281 16.4864Z" fill="black" fill-opacity="0.8"/>
<path d="M65.4453 72.5437C69.3374 69.6965 72.6014 66.0782 75.0341 61.9144C77.4668 57.7507 79.0159 53.1305 79.5851 48.3419C80.1542 43.5532 79.7311 38.6987 78.3422 34.0807C76.9532 29.4627 74.6282 25.1802 71.5119 21.5" stroke="black" stroke-opacity="0.8" stroke-width="3" stroke-linecap="round" stroke-linejoin="round"/>
<path d="M17.8361 21.5C14.7199 25.1802 12.3948 29.4627 11.0059 34.0807C9.61699 38.6987 9.19391 43.5532 9.76305 48.3419C10.3322 53.1305 11.8813 57.7506 14.314 61.9144C16.7467 66.0782 20.0107 69.6965 23.9028 72.5437" stroke="black" stroke-opacity="0.8" stroke-width="3" stroke-linecap="round" stroke-linejoin="round"/>
<path d="M23.9062 64.3362L31.0753 58.3203" stroke="black" stroke-opacity="0.8" stroke-width="3" stroke-linecap="round" stroke-linejoin="round"/>
<path d="M60.0887 37.3266C61.9181 36.9226 63.5359 35.8619 64.6357 34.3452C65.7355 32.8285 66.241 30.9612 66.0565 29.0968C64.8573 28.7605 63.5941 28.7219 62.3767 28.9845C61.1592 29.2471 60.0243 29.8029 59.0703 30.6036" stroke="black" stroke-opacity="0.8" stroke-width="3" stroke-linecap="round" stroke-linejoin="round"/>
<path d="M52.5956 38.1532C52.199 36.5767 52.2543 34.9203 52.7552 33.3738C53.256 31.8272 54.1823 30.4529 55.4278 29.4082L58.176 27.1023L58.1777 27.1016C58.7782 28.7113 59.0543 30.4239 58.9902 32.1408C58.9261 33.8577 58.523 35.545 57.8041 37.1054" stroke="black" stroke-opacity="0.8" stroke-width="3" stroke-linecap="round" stroke-linejoin="round"/>
<path d="M54.1236 43.0262C55.4204 43.3153 56.7664 43.3015 58.057 42.9859C59.3476 42.6703 60.5481 42.0614 61.5651 41.2065L64.3133 38.9005L64.3143 38.899C62.5134 37.8394 60.4838 37.229 58.3971 37.1195C56.3105 37.0099 54.2282 37.4044 52.3262 38.2695" stroke="black" stroke-opacity="0.8" stroke-width="3" stroke-linecap="round" stroke-linejoin="round"/>
<path d="M45.709 41.8547C45.6697 40.5484 45.9273 39.2502 46.4624 38.0578C46.9974 36.8654 47.7959 35.8099 48.7979 34.9707L51.546 32.6648L51.5477 32.6641C52.1482 34.2738 52.4244 35.9864 52.3603 37.7033C52.2962 39.4202 51.8931 41.1075 51.1742 42.6679" stroke="black" stroke-opacity="0.8" stroke-width="3" stroke-linecap="round" stroke-linejoin="round"/>
<path d="M47.3111 48.5547C48.6317 48.8787 50.0102 48.8865 51.3344 48.5776C52.6586 48.2686 53.8913 47.6517 54.9323 46.7768L57.6805 44.4708L57.6815 44.4693C55.8805 43.4097 53.8509 42.7993 51.7643 42.6898C49.6777 42.5802 47.5954 42.9747 45.6934 43.8398" stroke="black" stroke-opacity="0.8" stroke-width="3" stroke-linecap="round" stroke-linejoin="round"/>
<path d="M39.3339 49.2785C38.9373 47.702 38.9925 46.0456 39.4934 44.4989C39.9943 42.9523 40.9205 41.578 42.1661 40.5332L44.9143 38.2273L44.916 38.2266C45.5165 39.8364 45.7927 41.549 45.7286 43.266C45.6644 44.983 45.2613 46.6703 44.5423 48.2308" stroke="black" stroke-opacity="0.8" stroke-width="3" stroke-linecap="round" stroke-linejoin="round"/>
<path d="M40.6743 54.1156C41.9957 54.4409 43.3753 54.4495 44.7007 54.1408C46.0261 53.8321 47.26 53.2149 48.3018 52.3393L51.0499 50.0333L51.0509 50.0318C49.2499 48.9722 47.2203 48.3618 45.1336 48.2523C43.0469 48.1427 40.9645 48.5373 39.0625 49.4025" stroke="black" stroke-opacity="0.8" stroke-width="3" stroke-linecap="round" stroke-linejoin="round"/>
<path d="M32.7031 54.8488C32.3064 53.2723 32.3617 51.6159 32.8625 50.0692C33.3634 48.5226 34.2897 47.1483 35.5353 46.1036L38.2834 43.7976L38.2851 43.7969C38.8861 45.4078 39.1622 47.1218 39.0975 48.84C39.0329 50.5582 38.6287 52.2466 37.9083 53.8078" stroke="black" stroke-opacity="0.8" stroke-width="3" stroke-linecap="round" stroke-linejoin="round"/>
<path d="M29.4746 56.836C30.2053 57.7068 31.1004 58.4252 32.1088 58.9501C33.1171 59.475 34.219 59.7962 35.3514 59.8953C36.4839 59.9943 37.6248 59.8694 38.709 59.5275C39.7931 59.1857 40.7994 58.6337 41.6702 57.9029L44.4184 55.597L44.4194 55.5954C42.1056 54.232 39.4262 53.6192 36.7499 53.8414C34.0736 54.0636 31.5319 55.1098 29.4746 56.836Z" stroke="black" stroke-opacity="0.8" stroke-width="3" stroke-linecap="round" stroke-linejoin="round"/>
</svg>
