<svg width="37" height="37" viewBox="0 0 37 37" fill="none" xmlns="http://www.w3.org/2000/svg">
<path fillRule="evenodd" clipRule="evenodd" d="M0.875 4.79167C0.875 2.62855 2.62855 0.875 4.79167 0.875C6.95478 0.875 8.70833 2.62855 8.70833 4.79167C8.70833 6.95478 6.95478 8.70833 4.79167 8.70833C2.62855 8.70833 0.875 6.95478 0.875 4.79167ZM14.5833 4.79167C14.5833 2.62855 16.3369 0.875 18.5 0.875C20.6631 0.875 22.4167 2.62855 22.4167 4.79167C22.4167 6.95478 20.6631 8.70833 18.5 8.70833C16.3369 8.70833 14.5833 6.95478 14.5833 4.79167ZM28.2917 4.79167C28.2917 2.62855 30.0452 0.875 32.2083 0.875C34.3714 0.875 36.125 2.62855 36.125 4.79167C36.125 6.95478 34.3714 8.70833 32.2083 8.70833C30.0452 8.70833 28.2917 6.95478 28.2917 4.79167ZM0.875 18.5C0.875 16.3369 2.62855 14.5833 4.79167 14.5833C6.95478 14.5833 8.70833 16.3369 8.70833 18.5C8.70833 20.6631 6.95478 22.4167 4.79167 22.4167C2.62855 22.4167 0.875 20.6631 0.875 18.5ZM14.5833 18.5C14.5833 16.3369 16.3369 14.5833 18.5 14.5833C20.6631 14.5833 22.4167 16.3369 22.4167 18.5C22.4167 20.6631 20.6631 22.4167 18.5 22.4167C16.3369 22.4167 14.5833 20.6631 14.5833 18.5ZM28.2917 18.5C28.2917 16.3369 30.0452 14.5833 32.2083 14.5833C34.3714 14.5833 36.125 16.3369 36.125 18.5C36.125 20.6631 34.3714 22.4167 32.2083 22.4167C30.0452 22.4167 28.2917 20.6631 28.2917 18.5ZM0.875 32.2083C0.875 30.0452 2.62855 28.2917 4.79167 28.2917C6.95478 28.2917 8.70833 30.0452 8.70833 32.2083C8.70833 34.3714 6.95478 36.125 4.79167 36.125C2.62855 36.125 0.875 34.3714 0.875 32.2083ZM14.5833 32.2083C14.5833 30.0452 16.3369 28.2917 18.5 28.2917C20.6631 28.2917 22.4167 30.0452 22.4167 32.2083C22.4167 34.3714 20.6631 36.125 18.5 36.125C16.3369 36.125 14.5833 34.3714 14.5833 32.2083ZM28.2917 32.2083C28.2917 30.0452 30.0452 28.2917 32.2083 28.2917C34.3714 28.2917 36.125 30.0452 36.125 32.2083C36.125 34.3714 34.3714 36.125 32.2083 36.125C30.0452 36.125 28.2917 34.3714 28.2917 32.2083Z" fill="black"/>
</svg>
