<svg width="38" height="35" viewBox="0 0 38 35" fill="none" xmlns="http://www.w3.org/2000/svg">
<path d="M34.5938 27.7812H14.0938C12.6844 27.7812 11.5312 28.9344 11.5312 30.3438C11.5312 31.7531 12.6844 32.9062 14.0938 32.9062H34.5938C36.0031 32.9062 37.1562 31.7531 37.1562 30.3438C37.1562 28.9344 36.0031 27.7812 34.5938 27.7812ZM34.5938 14.5312H14.0938C12.6844 14.5312 11.5312 15.6844 11.5312 17.0938C11.5312 18.5031 12.6844 19.6562 14.0938 19.6562H34.5938C36.0031 19.6562 37.1562 18.5031 37.1562 17.0938C37.1562 15.6844 36.0031 14.5312 34.5938 14.5312ZM14.0938 6.40625H34.5938C36.0031 6.40625 37.1562 5.25313 37.1562 3.84375C37.1562 2.43437 36.0031 1.28125 34.5938 1.28125H14.0938C12.6844 1.28125 11.5312 2.43437 11.5312 3.84375C11.5312 5.25313 12.6844 6.40625 14.0938 6.40625ZM3.84375 26.5C1.66562 26.5 0 28.1656 0 30.3438C0 32.5219 1.66562 34.1875 3.84375 34.1875C6.02188 34.1875 7.6875 32.5219 7.6875 30.3438C7.6875 28.1656 6.02188 26.5 3.84375 26.5ZM3.84375 13.25C1.66562 13.25 0 14.9156 0 17.0938C0 19.2719 1.66562 20.9375 3.84375 20.9375C6.02188 20.9375 7.6875 19.2719 7.6875 17.0938C7.6875 14.9156 6.02188 13.25 3.84375 13.25ZM3.84375 0C1.66562 0 0 1.66562 0 3.84375C0 6.02188 1.66562 7.6875 3.84375 7.6875C6.02188 7.6875 7.6875 6.02188 7.6875 3.84375C7.6875 1.66562 6.02188 0 3.84375 0Z" fill="black"/>
</svg>
