<svg width="70" height="70" viewBox="0 0 70 70" fill="none" xmlns="http://www.w3.org/2000/svg">
<path d="M52.0488 29.9004C52.0488 20.4941 44.3926 12.8516 35 12.8516C25.6074 12.8516 17.9512 20.4941 17.9512 29.9004C17.9512 39.293 25.5937 46.9492 35 46.9492C44.4062 46.9492 52.0488 39.293 52.0488 29.9004ZM35 44.748C26.8105 44.748 20.1387 38.0898 20.1387 29.8867C20.1387 21.6836 26.8105 15.0391 35 15.0391C43.1895 15.0391 49.8613 21.6973 49.8613 29.9004C49.8613 38.1035 43.1895 44.748 35 44.748Z" fill="black"/>
<path d="M55.8906 47.5368C56.5059 47.2224 57.0527 46.8122 57.4766 46.238C58.584 44.7204 58.3242 42.738 58.0781 40.8103C57.9141 39.5661 57.75 38.2673 58.0371 37.3923C58.2969 36.572 59.1719 35.656 60.0059 34.781C61.3047 33.4138 62.7676 31.8689 62.7676 29.9138C62.7676 27.9587 61.3184 26.3864 60.0195 25.0193C59.1855 24.1306 58.3105 23.2282 58.0508 22.4079C57.7637 21.5329 57.9277 20.2341 58.0918 18.99C58.3379 17.0622 58.584 15.0798 57.4902 13.5622C56.3828 12.031 54.4004 11.6618 52.4863 11.2927C51.2559 11.0603 49.9844 10.8278 49.2598 10.2946C48.5352 9.77511 47.9336 8.65402 47.3457 7.56027C46.457 5.91964 45.4316 4.06027 43.6133 3.45871C41.8633 2.88449 40.0723 3.73214 38.3359 4.55246C37.1738 5.09933 35.9844 5.65988 35.0273 5.65988C34.0703 5.65988 32.8809 5.09933 31.7188 4.55246C29.9824 3.73214 28.1914 2.88449 26.4414 3.45871C24.6094 4.0466 23.6523 5.83761 22.709 7.56027C22.1211 8.64035 21.5059 9.77511 20.7949 10.2946C20.0566 10.8278 18.7988 11.0739 17.5684 11.2927C15.6543 11.6482 13.6719 12.031 12.5645 13.5622C11.457 15.0798 11.7168 17.0622 11.9629 18.99C12.127 20.2341 12.291 21.5329 12.0039 22.4079C11.7441 23.2282 10.8691 24.1443 10.0352 25.0193C8.73633 26.3864 7.27344 27.9314 7.27344 29.8864C7.27344 31.8415 8.75 33.3864 10.0352 34.7536C10.8691 35.6423 11.7441 36.5446 12.0039 37.365C12.291 38.24 12.127 39.5388 11.9629 40.7829C11.7168 42.7107 11.4707 44.6931 12.5645 46.2107C12.9883 46.7849 13.5352 47.2087 14.1504 47.5095L8.18945 57.8318C7.9707 58.2146 7.99805 58.6931 8.27148 59.0485C8.54492 59.404 8.99609 59.5544 9.41992 59.445L18.2246 57.0798L20.5898 65.8845C20.6992 66.3083 21.0684 66.6228 21.5059 66.6911C21.5605 66.6911 21.6016 66.7048 21.6426 66.7048C22.0254 66.7048 22.3945 66.4997 22.5859 66.1579L28.1777 56.4646C29.3672 56.3278 30.5703 55.7673 31.7324 55.2204C32.8945 54.6735 34.084 54.113 35.041 54.113C35.998 54.113 37.1875 54.6735 38.3496 55.2204C39.5117 55.7673 40.7148 56.3415 41.9043 56.4646L47.4961 66.1579C47.6875 66.4997 48.0566 66.7048 48.4394 66.7048C48.4805 66.7048 48.5352 66.7048 48.5762 66.6911C49.0137 66.6364 49.3691 66.322 49.4922 65.8845L51.8574 57.0798L60.6621 59.445C61.0859 59.5544 61.5371 59.404 61.8105 59.0485C62.084 58.6931 62.1113 58.2146 61.8926 57.8318L55.8906 47.5368ZM21.9707 62.7946L20.0156 55.4802C19.8652 54.8923 19.2637 54.5505 18.6758 54.7009L11.3613 56.656L16.2285 48.2204C16.6523 48.3161 17.0898 48.3982 17.5273 48.4802C18.7578 48.7126 20.0293 48.945 20.7539 49.4782C21.4785 49.9978 22.0801 51.1189 22.668 52.2126C23.4609 53.6755 24.3496 55.3025 25.8262 56.0681L21.9707 62.7946ZM35 51.9392C33.5508 51.9392 32.1289 52.6091 30.7617 53.2517C29.4082 53.8943 28.0137 54.5505 27.0977 54.2497C26.0996 53.9216 25.3477 52.5271 24.6094 51.1872C23.8984 49.8884 23.1738 48.5485 22.0527 47.7282C20.918 46.9079 19.4004 46.6208 17.9375 46.3474C16.4473 46.0603 14.9023 45.7732 14.2871 44.9528C13.6992 44.1462 13.8906 42.5876 14.082 41.0974C14.2734 39.6071 14.4648 38.0759 14.0273 36.7224C13.6035 35.4372 12.5645 34.3298 11.5664 33.2771C10.5 32.156 9.39258 30.9939 9.39258 29.9138C9.39258 28.8337 10.5 27.6716 11.5664 26.5505C12.5781 25.4841 13.6172 24.3903 14.0273 23.1052C14.4648 21.7517 14.2734 20.2204 14.082 18.7302C13.8906 17.2263 13.6992 15.6814 14.2871 14.8747C14.8887 14.0407 16.4336 13.7536 17.9375 13.4802C19.4004 13.2068 20.918 12.9196 22.0527 12.0993C23.1738 11.2927 23.8984 9.93918 24.6094 8.64035C25.3477 7.28683 26.0996 5.90597 27.0977 5.57785C28.0273 5.27707 29.4219 5.93332 30.7617 6.57589C32.1289 7.21847 33.5508 7.88839 35 7.88839C36.4492 7.88839 37.8711 7.21847 39.2383 6.57589C40.5918 5.93332 41.9863 5.27707 42.9023 5.57785C43.9004 5.90597 44.6523 7.3005 45.3906 8.64035C46.1016 9.93918 46.8262 11.279 47.9473 12.0993C49.082 12.9196 50.5996 13.2068 52.0625 13.4802C53.5527 13.7673 55.0977 14.0544 55.7129 14.8747C56.3008 15.6814 56.1094 17.24 55.918 18.7302C55.7266 20.2204 55.5352 21.7517 55.9727 23.1052C56.3965 24.3903 57.4355 25.4978 58.4336 26.5505C59.5 27.6716 60.6074 28.8337 60.6074 29.9138C60.6074 30.9939 59.5 32.156 58.4336 33.2771C57.4219 34.3435 56.3828 35.4372 55.9727 36.7224C55.5352 38.0759 55.7266 39.6071 55.918 41.0974C56.1094 42.6013 56.3008 44.1462 55.7129 44.9528C55.1113 45.7868 53.5664 46.0739 52.0625 46.3474C50.5996 46.6208 49.082 46.9079 47.9473 47.7282C46.8262 48.5349 46.1016 49.8884 45.3906 51.1872C44.6523 52.5407 43.9004 53.9216 42.9023 54.2497C41.9727 54.5505 40.5781 53.8943 39.2383 53.2517C37.8711 52.6091 36.4492 51.9392 35 51.9392ZM51.3242 54.7009C50.7363 54.5505 50.1348 54.8923 49.9844 55.4802L48.0293 62.7946L44.1602 56.0954C45.623 55.3435 46.4844 53.7712 47.3184 52.24C47.9062 51.1599 48.5215 50.0251 49.2324 49.5056C49.9707 48.9724 51.2285 48.7263 52.459 48.5075C52.8965 48.4255 53.334 48.3435 53.7578 48.2478L58.625 56.6833L51.3242 54.7009Z" fill="black"/>
<path d="M45.2544 23.2007C44.8306 22.7769 44.1333 22.7769 43.7095 23.2007L32.6353 34.2749L26.3052 27.9448C25.8813 27.521 25.1841 27.521 24.7603 27.9448C24.3364 28.3687 24.3364 29.0659 24.7603 29.4897L31.8696 36.5991C32.0747 36.8042 32.3481 36.9136 32.6489 36.9136C32.9497 36.9136 33.2231 36.8042 33.4282 36.5991L45.2544 24.7456C45.6782 24.3218 45.6782 23.6245 45.2544 23.2007Z" fill="black"/>
</svg>
