<svg width="75" height="76" viewBox="0 0 75 76" fill="none" xmlns="http://www.w3.org/2000/svg">
<g clip-path="url(#clip0_238_21833)">
<path d="M4.76074 52.9285C5.77046 52.9285 6.5918 53.7498 6.5918 54.7595C6.66841 56.7016 9.44429 56.7029 9.52148 54.7595C9.26001 48.4436 0.260303 48.4459 0 54.7595V61.3513C0.262207 67.6686 9.26162 67.6638 9.52148 61.3513V59.5204C9.52148 58.7115 8.86553 58.0556 8.05664 58.0556H6.22559C4.28203 58.1331 4.2835 60.9085 6.22559 60.9853H6.5918V61.3513C6.49087 63.7811 3.02959 63.7792 2.92969 61.3513V54.7595C2.92969 53.75 3.75103 52.9285 4.76074 52.9285Z" fill="black" fill-opacity="0.8"/>
<path d="M31.8604 50C29.2352 50 27.0996 52.1356 27.0996 54.7607V61.3525C27.3618 67.6698 36.3612 67.665 36.6211 61.3525V54.7607C36.6211 52.1357 34.4855 50 31.8604 50ZM33.6914 61.3525C33.5905 63.7823 30.1292 63.7804 30.0293 61.3525V54.7607C30.1302 52.331 33.5915 52.3329 33.6914 54.7607V61.3525Z" fill="black" fill-opacity="0.8"/>
<path d="M23.1297 50.0631C22.512 49.8757 21.8445 50.1154 21.4865 50.6525L18.3107 55.4162L15.1349 50.6525C14.7769 50.1154 14.1091 49.8759 13.4916 50.0631C12.8738 50.2502 12.4512 50.8197 12.4512 51.4651V64.6487C12.5287 66.5922 15.3041 66.5908 15.3809 64.6487V56.3032L17.0918 58.8694C17.6382 59.7306 18.9831 59.7305 19.5294 58.8694L21.2404 56.3032V64.6487C21.3179 66.5922 24.0933 66.5908 24.1701 64.6487V51.4651C24.1702 50.8197 23.7476 50.2502 23.1297 50.0631Z" fill="black" fill-opacity="0.8"/>
<path d="M17.2119 47.0692C19.8371 47.0692 21.9727 44.9336 21.9727 42.3084V35.7166C21.7105 29.3993 12.711 29.4042 12.4512 35.7166V42.3084C12.4512 44.9336 14.5868 47.0692 17.2119 47.0692ZM15.3809 35.7166C15.4818 33.2869 18.9431 33.2888 19.043 35.7166V42.3084C18.942 44.7382 15.4808 44.7363 15.3809 42.3084V35.7166Z" fill="black" fill-opacity="0.8"/>
<path d="M8.05664 30.9573C7.24775 30.9573 6.5918 31.6132 6.5918 32.4221V39.4005L2.775 31.7672C2.47119 31.1596 1.78989 30.8399 1.12822 30.9965C0.466992 31.1525 0 31.7429 0 32.4221V45.6057C0.0774902 47.5493 2.85293 47.5478 2.92969 45.6057V38.6273L6.74648 46.2606C7.04897 46.8718 7.74536 47.1877 8.39326 47.0313C9.05449 46.8753 9.52148 46.285 9.52148 45.6057V32.4221C9.52148 31.6132 8.86553 30.9573 8.05664 30.9573Z" fill="black" fill-opacity="0.8"/>
<path d="M27.832 45.6057V38.6273L31.6488 46.2606C31.9513 46.8718 32.6477 47.1877 33.2956 47.0313C33.9568 46.8753 34.4238 46.285 34.4238 45.6057V32.4221C34.3463 30.4786 31.5709 30.48 31.4941 32.4221V39.4005L27.6773 31.7672C27.3735 31.1596 26.6921 30.8399 26.0306 30.9965C25.3693 31.1525 24.9023 31.7429 24.9023 32.4221V45.6057C24.9798 47.5493 27.7553 47.5478 27.832 45.6057Z" fill="black" fill-opacity="0.8"/>
<path d="M74.0512 12.2965C73.9124 11.809 73.5313 11.428 73.0438 11.2891C67.0274 9.57508 60.7415 10.1771 55.344 12.9839C53.6553 13.9491 54.9372 16.4113 56.6956 15.5832C61.1901 13.2462 66.3968 12.6557 71.4445 13.8955C73.194 21.0472 71.1914 28.5313 66.1221 33.6006C61.4589 38.264 54.7523 40.3319 48.1407 39.2715L52.2778 35.1345H57.3107C59.2543 35.057 59.2528 32.2815 57.3107 32.2047H55.2073L60.3343 27.0778H65.3673C67.3108 27.0003 67.3094 24.2248 65.3673 24.148H63.264L66.4599 20.9522C67.0319 20.3801 67.0319 19.4526 66.4599 18.8804C65.8877 18.3085 64.9605 18.3085 64.3882 18.8804L61.1924 22.0762V19.9732C61.1149 18.0296 58.3395 18.0311 58.2627 19.9732V25.0059L53.1357 30.1329V28.0299C53.0582 26.0863 50.2828 26.0878 50.206 28.0299V33.0626L46.0659 37.2027C45.3333 32.7044 46.0323 28.159 48.1051 24.1735C48.4784 23.4558 48.1992 22.5713 47.4814 22.198C46.7635 21.8248 45.8791 22.1041 45.5059 22.8218C42.829 27.969 42.1571 33.9237 43.5866 39.6821L38.6986 44.5702C38.1265 45.1422 38.1265 46.0697 38.6986 46.6419C39.2707 47.2139 40.1981 47.2139 40.7703 46.6419L45.6587 41.7536C58.2261 44.9882 71.3618 37.4081 74.3397 24.6827C75.309 20.6448 75.2093 16.3619 74.0512 12.2965Z" fill="black" fill-opacity="0.8"/>
<path d="M50.7057 19.6484C52.6493 19.5709 52.6478 16.7955 50.7057 16.7188H50.7046C48.761 16.7965 48.7637 19.572 50.7057 19.6484Z" fill="black" fill-opacity="0.8"/>
</g>
<defs>
<clipPath id="clip0_238_21833">
<rect width="75" height="75" fill="white" transform="translate(0 0.71875)"/>
</clipPath>
</defs>
</svg>
