<svg width="90" height="91" viewBox="0 0 90 91" fill="none" xmlns="http://www.w3.org/2000/svg">
<path d="M32.055 28.7261C31.9727 28.7634 31.8955 28.8112 31.8253 28.8682C31.8074 28.8824 31.7901 28.8962 31.7732 28.9115C31.7048 28.9712 31.6445 29.0396 31.5939 29.1149C31.5907 29.1197 31.589 29.1253 31.5859 29.1302C31.5511 29.1842 31.5213 29.2413 31.4969 29.3008L27.009 40.5227C26.9576 40.6513 26.932 40.7887 26.9337 40.9272C26.9354 41.0657 26.9644 41.2025 27.0189 41.3297C27.0735 41.457 27.1526 41.5723 27.2518 41.669C27.3509 41.7657 27.4681 41.8419 27.5967 41.8932L38.8149 46.3797L38.817 46.3805L38.8186 46.3812C39.0293 46.4681 39.2634 46.4804 39.4822 46.4161C39.5056 46.4098 39.5279 46.4027 39.5508 46.3948C39.5755 46.3864 39.6011 46.3819 39.6254 46.3716L46.7164 43.3325C46.8438 43.2779 46.9592 43.1988 47.0559 43.0996C47.1527 43.0004 47.2289 42.883 47.2802 42.7543L51.7688 31.5324C51.775 31.5168 51.7746 31.5002 51.7801 31.4844C51.7959 31.4346 51.808 31.3837 51.8161 31.3321C51.8271 31.2812 51.8343 31.2295 51.8375 31.1775C51.8381 31.1606 51.8445 31.145 51.8443 31.128C51.8439 31.0935 51.8318 31.0619 51.828 31.0282C51.8235 30.9756 51.815 30.9234 51.8026 30.8722C51.7886 30.8233 51.7709 30.7755 51.7498 30.7292C51.7131 30.6323 51.658 30.5434 51.5877 30.4674C51.5657 30.4412 51.5511 30.4106 51.5264 30.3864C51.514 30.3743 51.4981 30.3682 51.4853 30.3568C51.4034 30.2917 51.3156 30.2347 51.2229 30.1864C51.2079 30.1795 51.1963 30.168 51.181 30.1619L39.9584 25.6733C39.8299 25.6217 39.6925 25.5961 39.5541 25.5977C39.4156 25.5994 39.2789 25.6283 39.1516 25.6829L32.0606 28.7226L32.055 28.7261ZM33.0638 31.0635L42.3273 34.7679L38.6222 44.0307L29.3594 40.3263L33.0638 31.0635ZM45.4839 41.5657L41.1348 43.4292L42.104 41.006L44.5156 34.9775L46.3478 34.1923L48.8649 33.1137L45.4839 41.5657ZM39.5808 27.7936L48.0334 31.1747L47.7669 31.2889L43.6842 33.0386L41.1786 32.0367L35.2317 29.6585L39.5808 27.7936Z" fill="black" fill-opacity="0.8"/>
<path d="M48.9739 45.8975L44.9618 52.4872C44.9145 52.5679 44.8781 52.6545 44.8535 52.7447C44.8477 52.7651 44.8421 52.7848 44.8375 52.8054C44.8159 52.8949 44.8063 52.9869 44.809 53.079L44.8101 53.0865C44.8129 53.1534 44.8222 53.2199 44.8376 53.2851L47.6919 65.0295C47.7584 65.3012 47.9299 65.5354 48.1688 65.6808C48.4076 65.8263 48.6944 65.8711 48.9663 65.8054L60.7107 62.9503L60.7225 62.9462C60.734 62.9432 60.7445 62.9377 60.7559 62.9344C60.8236 62.9147 60.8892 62.8883 60.9516 62.8555C60.9717 62.8449 60.9902 62.8326 61.0097 62.8207C61.062 62.7888 61.1114 62.7523 61.1572 62.7117C61.1743 62.6966 61.1916 62.6823 61.2077 62.666C61.2666 62.6082 61.3185 62.5437 61.3623 62.4738L65.3744 55.8841C65.5199 55.6451 65.5646 55.3581 65.4987 55.0862L62.6443 43.3425C62.6402 43.3257 62.63 43.312 62.6251 43.2956C62.5902 43.1972 62.5459 43.1023 62.493 43.0123C62.4839 42.9987 62.4802 42.9829 62.4706 42.9696C62.4506 42.9422 62.4229 42.9238 62.4006 42.8987C62.2654 42.7364 62.0799 42.6237 61.8735 42.5783C61.842 42.5704 61.8138 42.5545 61.7812 42.5494C61.7652 42.547 61.7497 42.5509 61.7337 42.5492C61.6296 42.5437 61.5252 42.548 61.4219 42.5619C61.4045 42.5652 61.3872 42.5624 61.3698 42.5666L49.6255 45.421C49.3538 45.4873 49.1194 45.6587 48.9739 45.8975ZM47.1364 53.8119L56.831 51.4552L59.1871 61.1494L49.4929 63.5065L47.1364 53.8119ZM60.8851 59.2012L58.7353 50.3559L61.1956 46.3155L63.3454 55.1603L60.8851 59.2012ZM59.3941 45.2178L56.9335 49.2588L48.0878 51.4092L50.5483 47.3676L59.3941 45.2178Z" fill="black" fill-opacity="0.8"/>
<path d="M25.8017 77.7812C25.1566 77.3845 24.6064 76.851 24.1902 76.2184L22.9336 77.488C23.4265 78.178 24.06 78.7558 24.7923 79.1833C26.8756 80.411 28.3313 79.9111 28.9761 78.8166C29.5583 77.8279 29.3173 76.8638 28.2881 75.7095C27.5952 74.9357 27.2471 74.5745 27.4524 74.2257C27.6179 73.9442 28.0306 73.9524 28.5737 74.2724C29.1247 74.6026 29.6036 75.0402 29.982 75.5592L31.2434 74.3706C30.7651 73.7369 30.159 73.2108 29.4643 72.8263C27.769 71.8279 26.1897 72.0717 25.4934 73.2534C24.8253 74.3878 25.409 75.5015 26.3408 76.4676C27.0034 77.1584 27.1956 77.5195 27.0302 77.8004C26.8358 78.13 26.4115 78.141 25.8017 77.7812Z" fill="black" fill-opacity="0.8"/>
<path d="M34.9422 75.4713L32.8981 74.8828L31.7905 78.7335C31.0689 81.2425 31.9855 82.6536 34.0729 83.2544C36.2901 83.8916 37.8818 83.1205 38.5664 80.7413L39.6897 76.837L37.6455 76.2492L36.5071 80.207C36.1617 81.4073 35.5437 81.9676 34.614 81.6998C33.6836 81.432 33.4735 80.5757 33.8031 79.4297L34.9422 75.4713Z" fill="black" fill-opacity="0.8"/>
<path d="M45.6603 78.7324C46.3837 78.7181 47.102 78.8563 47.7683 79.1382L48.2448 77.4806C47.4543 77.1628 46.6077 77.0077 45.7558 77.0247C43.0573 76.9808 40.9541 78.33 40.9122 80.9495C40.8956 81.4387 40.9812 81.926 41.1635 82.3802C41.3458 82.8344 41.6208 83.2456 41.971 83.5876C42.7016 84.3079 43.8311 84.7309 45.4948 84.7577C46.4919 84.7575 47.4834 84.6108 48.4378 84.3223L48.5044 80.1846L45.2552 80.1317L45.2284 81.7618L46.3978 81.7811L46.3779 83.0068C46.1193 83.064 45.8541 83.0862 45.5896 83.0727C44.1284 83.0486 43.1307 82.1443 43.1527 80.7944C43.176 79.3442 44.3337 78.7111 45.6603 78.7324Z" fill="black" fill-opacity="0.8"/>
<path d="M51.7939 76.3913L51.4863 84.3351L53.6451 83.7439L53.6239 81.8371L55.7504 81.2541L56.7797 82.8849L59.058 82.2607L54.5927 75.625L51.7939 76.3913ZM53.5071 80.2599L53.503 78.8852C53.5064 78.4293 53.4694 77.8676 53.4728 77.4123L53.4947 77.4062C53.7406 77.7934 54.0379 78.2837 54.281 78.66L55.0253 79.8438L53.5071 80.2599Z" fill="black" fill-opacity="0.8"/>
<path d="M64.3404 75.4628L64.3177 75.4237C64.5831 75.1178 64.7495 74.7386 64.7947 74.3363C64.84 73.9339 64.762 73.5272 64.5711 73.1701C64.4245 72.8841 64.2093 72.639 63.9447 72.4566C63.6801 72.2742 63.3744 72.1603 63.055 72.125C62.1115 72.1274 61.1915 72.4203 60.4204 72.9641C59.6423 73.4066 58.8967 73.9041 58.1895 74.4527L61.942 80.9237L63.7616 79.869L62.345 77.4259L62.676 77.2343C63.2892 76.8787 63.6421 76.8821 64.3033 77.5523C64.719 78.0001 65.1799 78.4037 65.6787 78.7566L67.5471 77.6731C67.2738 77.4939 66.491 76.6603 65.8778 76.1186C65.6838 75.9051 65.446 75.736 65.1807 75.6228C64.9154 75.5096 64.6288 75.4551 64.3404 75.4628ZM62.1397 75.8164L61.5945 76.1323L60.7252 74.6333C60.938 74.4654 61.165 74.3163 61.4036 74.1877C62.0264 73.8265 62.5428 73.8657 62.8305 74.3621C63.1182 74.8579 62.8593 75.3983 62.1397 75.8164Z" fill="black" fill-opacity="0.8"/>
<path d="M17.5161 21.3085L15.0407 20.8093L13.2891 22.8204L19.0088 27.8027L20.3025 26.3175L18.7582 24.9724C17.8923 24.2184 17.0533 23.5023 16.1503 22.7902L16.1805 22.7573C17.2245 23.0858 18.2844 23.3613 19.3563 23.5826L22.1502 24.1964L23.6808 22.4393L17.961 17.457L16.6674 18.9423L18.1608 20.2428C18.9263 20.9322 19.735 21.572 20.5819 22.1586L20.5599 22.1833C19.5678 21.8186 18.5505 21.5262 17.5161 21.3085Z" fill="black" fill-opacity="0.8"/>
<path d="M23.8842 12.8268C23.4101 13.0897 22.9961 13.4487 22.6688 13.8808C22.3415 14.313 22.108 14.8087 21.9833 15.3363C21.8586 15.8638 21.8455 16.4116 21.9447 16.9446C22.044 17.4775 22.2534 17.9839 22.5597 18.4312C22.8296 18.8816 23.1912 19.2702 23.621 19.5718C24.0509 19.8733 24.5393 20.0811 25.0547 20.1817C25.57 20.2822 26.1008 20.2733 26.6124 20.1554C27.1241 20.0376 27.6053 19.8134 28.0247 19.4976C30.2179 18.0838 30.6614 15.8041 29.4179 13.8753C28.2115 12.0042 26.0396 11.4377 23.8842 12.8268ZM27.2296 18.057C26.2655 18.6784 25.136 18.2554 24.4294 17.1589C23.7222 16.063 23.7908 14.8407 24.746 14.2255C25.7004 13.6096 26.8416 14.0511 27.5489 15.1484C28.2554 16.2442 28.2032 17.4294 27.2296 18.057Z" fill="black" fill-opacity="0.8"/>
<path d="M39.5915 12.9326L40.4938 14.6382L42.8146 14.1898L38.8671 7.22656L36.0162 7.77726L35.1016 15.6799L37.3002 15.2555L37.4252 13.3507L39.5915 12.9326ZM37.5309 10.3961C37.5694 9.94225 37.5749 9.3792 37.6133 8.92464L37.6353 8.92052C37.8516 9.32564 38.1105 9.83719 38.3247 10.232L38.9763 11.4693L37.4293 11.7687L37.5309 10.3961Z" fill="black" fill-opacity="0.8"/>
<path d="M50.6022 7.79832C49.6193 7.12668 48.4582 6.76374 47.2678 6.75599C46.3798 6.67535 45.4872 6.6586 44.5968 6.70587L43.9863 14.1168C44.7208 14.2805 45.4669 14.387 46.2179 14.4354C47.5926 14.6352 48.9953 14.3951 50.2252 13.7494C50.7186 13.4242 51.1258 12.9843 51.4121 12.4674C51.6983 11.9504 51.8551 11.3718 51.869 10.7811C51.9423 10.2162 51.8636 9.6419 51.6409 9.11757C51.4182 8.59324 51.0596 8.13783 50.6022 7.79832ZM46.7219 12.8404C46.5568 12.8313 46.3925 12.8104 46.2303 12.7779L46.5928 8.37098C46.8405 8.34896 47.0898 8.3508 47.3372 8.37647C48.705 8.48908 49.7184 9.20457 49.5949 10.7069C49.4596 12.3549 48.2669 12.99 46.7219 12.8404Z" fill="black" fill-opacity="0.8"/>
<path d="M57.9609 8.89648C57.1305 8.57164 56.2778 8.30728 55.4093 8.10547L52.7637 15.055C53.4237 15.4165 54.1108 15.7262 54.8188 15.9813C56.0837 16.5558 57.4981 16.7149 58.859 16.4358C59.4234 16.2606 59.937 15.9512 60.3556 15.5341C60.7743 15.1169 61.0856 14.6046 61.263 14.0408C61.4905 13.5185 61.5744 12.9449 61.5062 12.3793C61.438 11.8137 61.2201 11.2765 60.875 10.8232C60.1171 9.9052 59.1024 9.23433 57.9609 8.89648ZM59.0993 13.3377C58.5109 14.8833 57.1891 15.1628 55.7458 14.5888C55.5897 14.5343 55.4378 14.4687 55.2912 14.3924L56.8643 10.2601C57.1083 10.308 57.3471 10.3788 57.5777 10.4716C58.8611 10.9599 59.6356 11.9287 59.0993 13.3377Z" fill="black" fill-opacity="0.8"/>
<path d="M60.9434 18.5731L65.4898 21.7913L66.4777 20.3949L63.6673 18.4051L64.4147 17.349L66.9312 19.1314L67.9198 17.735L65.4033 15.954L66.0734 15.0076L68.7452 16.8997L69.7338 15.5033L65.3252 12.3828L60.9434 18.5731Z" fill="black" fill-opacity="0.8"/>
<path d="M71.275 26.7739C71.854 26.8919 72.453 26.868 73.0209 26.7043C73.5887 26.5406 74.1085 26.242 74.5359 25.8339C74.9866 25.4855 75.3363 25.0232 75.549 24.4947C75.7616 23.9662 75.8296 23.3905 75.7457 22.827C75.524 21.6575 74.9583 20.5807 74.1211 19.7344C73.5501 19.0497 72.93 18.4074 72.2658 17.8125L66.5996 22.6272C67.0038 23.2619 67.4565 23.8642 67.9537 24.429C68.7857 25.5414 69.9483 26.3621 71.275 26.7739ZM72.5027 20.4011C72.6936 20.5607 72.869 20.7379 73.0266 20.9305C73.9151 21.9763 74.1273 23.1985 72.9785 24.1749C71.7178 25.2454 70.4249 24.8533 69.4368 23.6558C69.3266 23.5327 69.2252 23.4019 69.1333 23.2644L72.5027 20.4011Z" fill="black" fill-opacity="0.8"/>
<path d="M75.177 27.6931C75.0561 27.7608 74.9498 27.8516 74.864 27.9604C74.7783 28.0692 74.7148 28.1938 74.6772 28.3272C74.6397 28.4605 74.6288 28.5999 74.6451 28.7375C74.6615 28.8751 74.7048 29.008 74.7725 29.1289C78.5286 35.8469 79.8971 43.6395 78.6548 51.2353C77.4125 58.8311 73.6327 65.7817 67.9322 70.9531C67.7256 71.1414 67.6022 71.4039 67.5891 71.6831C67.5759 71.9622 67.6741 72.2352 67.862 72.442C68.0499 72.6489 68.3122 72.7727 68.5914 72.7863C68.8705 72.7999 69.1436 72.7021 69.3508 72.5145C75.4043 67.0223 79.418 59.6406 80.7368 51.5739C82.0557 43.5073 80.6019 35.2317 76.6127 28.0975C76.4759 27.8536 76.2478 27.674 75.9786 27.5981C75.7093 27.5223 75.421 27.5564 75.177 27.6931Z" fill="black" fill-opacity="0.8"/>
<path d="M20.6489 72.5136C20.856 72.7012 21.1291 72.7989 21.4083 72.7853C21.6874 72.7717 21.9497 72.6479 22.1377 72.441C22.3256 72.2342 22.4237 71.9612 22.4106 71.6821C22.3974 71.4029 22.274 71.1404 22.0675 70.9521C16.3669 65.7808 12.5871 58.8301 11.3448 51.2343C10.1025 43.6385 11.4711 35.8459 15.2271 29.1279C15.3635 28.8839 15.3974 28.5957 15.3214 28.3267C15.2455 28.0577 15.0659 27.8299 14.822 27.6932C14.5782 27.5566 14.2901 27.5223 14.021 27.5979C13.7519 27.6735 13.5239 27.8529 13.3869 28.0965C9.39771 35.2307 7.94395 43.5063 9.26281 51.573C10.5817 59.6396 14.5953 67.0213 20.6489 72.5136Z" fill="black" fill-opacity="0.8"/>
</svg>
