<svg width="75" height="76" viewBox="0 0 75 76" fill="none" xmlns="http://www.w3.org/2000/svg">
<g clip-path="url(#clip0_238_21802)">
<path d="M58.2128 17.6104C57.8145 16.9207 57.0724 16.4922 56.2759 16.4922H18.1943C17.3977 16.4922 16.6556 16.9207 16.2575 17.6104L13.5398 22.3174C13.236 22.8436 13.4163 23.5164 13.9425 23.8202C14.4685 24.124 15.1414 23.9437 15.4452 23.4175L17.5382 19.7925L25.4812 33.55H9.59525L12.9535 27.7331C13.2574 27.2069 13.077 26.534 12.5509 26.2303C12.0247 25.9262 11.3517 26.1068 11.0481 26.633L6.98373 33.6728C6.59803 34.3406 6.68416 35.1758 7.19774 35.7512L35.8762 67.8713C36.2137 68.2494 36.6979 68.4663 37.2049 68.4666H37.2058C37.7123 68.4666 38.1965 68.2501 38.5343 67.8726L67.271 35.7521C67.7857 35.1767 67.8722 34.341 67.4862 33.6723L58.2128 17.6104ZM39.556 33.5501H29.292L37.2349 19.7925L45.1779 33.5501H45.0826C44.4749 33.5501 43.9825 34.0428 43.9825 34.6502C43.9825 35.2579 44.4751 35.7503 45.0826 35.7503H45.6122L37.2083 64.2735L28.8552 35.7505H39.556C40.1636 35.7505 40.6561 35.2579 40.6561 34.6504C40.6562 34.0428 40.1636 33.5501 39.556 33.5501ZM47.0835 32.45L39.1406 18.6924H55.0265L47.0835 32.45ZM47.9063 35.7505H64.3201L39.8463 63.106L47.9063 35.7505ZM64.8749 33.5501H48.989L56.932 19.7926L64.8749 33.5501ZM19.4437 18.6924H35.3296L27.3867 32.4499L19.4437 18.6924ZM26.5624 35.7505L34.5749 63.1103L10.1468 35.7505H26.5624Z" fill="black" fill-opacity="0.8"/>
<path d="M63.8604 64.3669C63.8081 64.332 63.7528 64.3017 63.6953 64.2762C62.9968 63.9673 62.3527 63.6024 61.7809 63.1921C61.2874 62.8379 60.5999 62.9508 60.2456 63.4445C59.8914 63.9381 60.0043 64.6254 60.4979 64.9798C60.8334 65.2206 61.188 65.4478 61.5594 65.6601C59.1834 67.0158 57.5356 68.958 56.7286 71.3593C55.9216 68.9584 54.2741 67.0164 51.8987 65.6606C54.2744 64.3049 55.9219 62.3627 56.7288 59.9615C56.7399 59.9946 56.7513 60.0276 56.7626 60.0605C56.9624 60.6343 57.5894 60.9374 58.1634 60.7377C58.7372 60.5379 59.0403 59.9108 58.8406 59.3369C58.757 59.0971 58.6836 58.8479 58.6219 58.5966L58.1646 56.7283C58.0021 56.0649 57.4117 55.6016 56.7286 55.6016C56.0456 55.6016 55.4551 56.0649 55.2925 56.7285L54.8353 58.5966C54.0559 61.7807 51.646 63.4427 49.7618 64.2764C49.7042 64.3019 49.649 64.3322 49.5966 64.3672C49.163 64.6562 48.9043 65.1397 48.9043 65.6608C48.9043 66.1818 49.1631 66.6654 49.5966 66.9544C49.6489 66.9894 49.7041 67.0196 49.7618 67.0452C51.646 67.8787 54.0557 69.5409 54.8353 72.725L55.2926 74.5933C55.4551 75.2567 56.0456 75.72 56.7286 75.72C57.4117 75.72 58.0021 75.2567 58.1646 74.5931L58.6219 72.725C59.4014 69.5409 61.8112 67.8789 63.6954 67.0452C63.7528 67.0197 63.8081 66.9894 63.8605 66.9545C64.2941 66.6657 64.5529 66.182 64.5529 65.6608C64.5529 65.1396 64.2939 64.6559 63.8604 64.3669Z" fill="black" fill-opacity="0.8"/>
<path d="M69.0779 15.9016C69.0254 15.8666 68.9702 15.8363 68.9125 15.8108C67.6936 15.2716 66.937 14.4324 66.6638 13.3165L66.4334 12.3746C66.2915 11.7954 65.7758 11.3906 65.1796 11.3906C65.1796 11.3906 65.1795 11.3906 65.1793 11.3906C64.583 11.3908 64.0675 11.7955 63.9259 12.3746L63.6953 13.3165C63.4221 14.4324 62.6655 15.2716 61.4466 15.8108C61.3891 15.8363 61.3337 15.8666 61.2813 15.9016C60.9106 16.1487 60.6893 16.5624 60.6895 17.0079C60.6895 17.4533 60.9109 17.8668 61.2817 18.1138C61.334 18.1487 61.3891 18.179 61.4466 18.2045C62.6657 18.7437 63.4221 19.5829 63.6953 20.699L63.9259 21.6406C64.0677 22.2199 64.5832 22.6245 65.1795 22.6247H65.1798C65.7761 22.6247 66.2916 22.2202 66.4335 21.6407L66.6641 20.699C66.9373 19.5831 67.6939 18.7438 68.9128 18.2046C68.9702 18.1792 69.0254 18.149 69.0777 18.114C69.4485 17.867 69.6698 17.4535 69.67 17.008C69.6698 16.5623 69.4485 16.1487 69.0779 15.9016ZM65.1795 18.5902C64.8124 17.9862 64.3286 17.4555 63.7365 17.0077C64.3287 16.5599 64.8126 16.0292 65.1796 15.4252C65.5467 16.0292 66.0306 16.5599 66.6227 17.0077C66.0304 17.4555 65.5466 17.9861 65.1795 18.5902Z" fill="black" fill-opacity="0.8"/>
<path d="M9.62402 13.4632L9.95435 14.8123C10.1052 15.4286 10.6538 15.8591 11.2882 15.8591C11.9228 15.8591 12.4714 15.4286 12.6221 14.8123L12.9524 13.4632C13.4859 11.2844 15.1452 10.1425 16.4433 9.56816C16.5009 9.54268 16.5561 9.51235 16.6084 9.47734C17.0067 9.21191 17.2444 8.76763 17.2444 8.28906C17.2444 7.81035 17.0068 7.36606 16.6085 7.10049C16.5561 7.06548 16.5009 7.03516 16.4432 7.00967C15.1452 6.43545 13.4859 5.2936 12.9524 3.11479L12.6221 1.76567C12.4712 1.14927 11.9227 0.71875 11.2881 0.71875C10.6537 0.71875 10.1051 1.14927 9.9542 1.76553L9.62388 3.11465C9.09067 5.29346 7.4313 6.4353 6.1333 7.00952C6.07573 7.03501 6.02036 7.06533 5.96807 7.10034C5.56963 7.36606 5.33203 7.81035 5.33203 8.28906C5.33203 8.76777 5.56992 9.21206 5.96821 9.47749C6.02051 9.51235 6.07573 9.54268 6.13315 9.56816C7.4313 10.1424 9.09067 11.2844 9.62402 13.4632ZM11.2881 5.00532C11.8944 6.33247 12.8736 7.44194 14.1869 8.28892C12.8738 9.13589 11.8944 10.2455 11.2881 11.5727C10.6818 10.2455 9.70239 9.13603 8.38931 8.28892C9.70239 7.44194 10.6818 6.33232 11.2881 5.00532Z" fill="black" fill-opacity="0.8"/>
</g>
<defs>
<clipPath id="clip0_238_21802">
<rect width="75" height="75" fill="white" transform="translate(0 0.71875)"/>
</clipPath>
</defs>
</svg>
