<svg width="64" height="64" viewBox="0 0 64 64" fill="none" xmlns="http://www.w3.org/2000/svg">
<path d="M31.9996 61.9396C29.4696 61.9396 27.5296 60.0796 25.6496 58.2796C24.4696 57.1496 23.3496 56.0796 22.2196 55.6096C21.0096 55.1096 19.3396 55.0596 17.7196 55.0196C15.1696 54.9496 12.5396 54.8796 10.8296 53.1696C9.11957 51.4596 9.04957 48.8296 8.97957 46.2796C8.93957 44.6596 8.88957 42.9796 8.38957 41.7796C7.91957 40.6496 6.84957 39.5296 5.71957 38.3496C3.91957 36.4696 2.05957 34.5296 2.05957 31.9996C2.05957 29.4696 3.91957 27.5296 5.71957 25.6496C6.84957 24.4696 7.91957 23.3496 8.38957 22.2196C8.88957 21.0096 8.93957 19.3396 8.97957 17.7196C9.04957 15.1696 9.11957 12.5396 10.8296 10.8296C12.5396 9.11957 15.1696 9.04957 17.7196 8.97957C19.3396 8.93957 21.0196 8.88957 22.2196 8.38957C23.3496 7.91957 24.4696 6.84957 25.6496 5.71957C27.5296 3.91957 29.4696 2.05957 31.9996 2.05957C34.5296 2.05957 36.4696 3.91957 38.3496 5.71957C39.5296 6.84957 40.6496 7.91957 41.7796 8.38957C42.9896 8.88957 44.6596 8.93957 46.2796 8.97957C48.8296 9.04957 51.4596 9.11957 53.1696 10.8296C54.8796 12.5396 54.9496 15.1696 55.0196 17.7196C55.0596 19.3396 55.1096 21.0196 55.6096 22.2196C56.0796 23.3496 57.1496 24.4696 58.2796 25.6496C60.0796 27.5296 61.9396 29.4696 61.9396 31.9996C61.9396 34.5296 60.0796 36.4696 58.2796 38.3496C57.1496 39.5296 56.0796 40.6496 55.6096 41.7796C55.1096 42.9896 55.0596 44.6596 55.0196 46.2796C54.9496 48.8296 54.8796 51.4596 53.1696 53.1696C51.4596 54.8796 48.8296 54.9496 46.2796 55.0196C44.6596 55.0596 42.9796 55.1096 41.7796 55.6096C40.6496 56.0796 39.5296 57.1496 38.3496 58.2796C36.4696 60.0796 34.5296 61.9396 31.9996 61.9396ZM31.9996 4.05957C30.2696 4.05957 28.6996 5.56957 27.0296 7.15957C25.7696 8.36957 24.4596 9.61957 22.9796 10.2396C21.4296 10.8796 19.5696 10.9296 17.7696 10.9796C15.5196 11.0396 13.3796 11.0996 12.2396 12.2396C11.0996 13.3896 11.0396 15.5096 10.9796 17.7696C10.9296 19.5696 10.8796 21.4396 10.2396 22.9796C9.62957 24.4496 8.37957 25.7596 7.15957 27.0296C5.55957 28.6996 4.05957 30.2696 4.05957 31.9996C4.05957 33.7296 5.56957 35.2996 7.15957 36.9696C8.36957 38.2296 9.61957 39.5396 10.2396 41.0196C10.8796 42.5696 10.9296 44.4296 10.9796 46.2296C11.0396 48.4796 11.0996 50.6196 12.2396 51.7596C13.3896 52.8996 15.5096 52.9596 17.7696 53.0196C19.5696 53.0696 21.4396 53.1196 22.9796 53.7596C24.4496 54.3696 25.7596 55.6196 27.0296 56.8396C28.6996 58.4396 30.2696 59.9396 31.9996 59.9396C33.7296 59.9396 35.2996 58.4296 36.9696 56.8396C38.2296 55.6296 39.5396 54.3796 41.0196 53.7596C42.5696 53.1196 44.4296 53.0696 46.2296 53.0196C48.4796 52.9596 50.6196 52.8996 51.7596 51.7596C52.8996 50.6096 52.9596 48.4896 53.0196 46.2296C53.0696 44.4296 53.1196 42.5596 53.7596 41.0196C54.3696 39.5496 55.6196 38.2396 56.8396 36.9696C58.4396 35.2996 59.9396 33.7296 59.9396 31.9996C59.9396 30.2696 58.4296 28.6996 56.8396 27.0296C55.6296 25.7696 54.3796 24.4596 53.7596 22.9796C53.1196 21.4296 53.0696 19.5696 53.0196 17.7696C52.9596 15.5196 52.8996 13.3796 51.7596 12.2396C50.6096 11.0996 48.4896 11.0396 46.2296 10.9796C44.4296 10.9296 42.5596 10.8796 41.0196 10.2396C39.5496 9.62957 38.2396 8.37957 36.9696 7.15957C35.2996 5.55957 33.7296 4.05957 31.9996 4.05957Z" fill="black"/>
<path d="M32.0003 55.4703C29.9403 55.4703 28.3303 53.9303 26.9103 52.5703C26.0103 51.7003 25.1503 50.8903 24.3203 50.5403C23.4203 50.1703 22.1403 50.1303 20.9003 50.1003C18.8803 50.0403 16.7903 49.9903 15.4003 48.6003C14.0103 47.2103 13.9503 45.1203 13.9003 43.1003C13.8703 41.8603 13.8303 40.5803 13.4603 39.6803C13.1103 38.8403 12.3003 37.9903 11.4303 37.0903C10.0703 35.6703 8.53027 34.0603 8.53027 32.0003C8.53027 29.9403 10.0703 28.3303 11.4303 26.9103C12.3003 26.0103 13.1103 25.1503 13.4603 24.3203C13.8303 23.4203 13.8703 22.1403 13.9003 20.9003C13.9603 18.8803 14.0103 16.7903 15.4003 15.4003C16.7903 14.0103 18.8803 13.9503 20.9003 13.9003C22.1403 13.8703 23.4203 13.8303 24.3203 13.4603C25.1603 13.1103 26.0103 12.3003 26.9103 11.4303C28.3303 10.0703 29.9403 8.53027 32.0003 8.53027C34.0603 8.53027 35.6703 10.0703 37.0903 11.4303C37.9903 12.3003 38.8503 13.1103 39.6803 13.4603C40.5803 13.8303 41.8603 13.8703 43.1003 13.9003C45.1203 13.9603 47.2103 14.0103 48.6003 15.4003C49.9903 16.7903 50.0503 18.8803 50.1003 20.9003C50.1303 22.1403 50.1703 23.4203 50.5403 24.3203C50.8903 25.1603 51.7003 26.0103 52.5703 26.9103C53.9303 28.3303 55.4703 29.9403 55.4703 32.0003C55.4703 34.0603 53.9303 35.6703 52.5703 37.0903C51.7003 37.9903 50.8903 38.8503 50.5403 39.6803C50.1703 40.5803 50.1303 41.8603 50.1003 43.1003C50.0403 45.1203 49.9903 47.2103 48.6003 48.6003C47.2103 49.9903 45.1203 50.0503 43.1003 50.1003C41.8603 50.1303 40.5803 50.1703 39.6803 50.5403C38.8403 50.8903 37.9903 51.7003 37.0903 52.5703C35.6703 53.9303 34.0603 55.4703 32.0003 55.4703ZM32.0003 10.5303C30.7503 10.5303 29.5603 11.6703 28.3003 12.8803C27.3003 13.8403 26.2703 14.8203 25.0903 15.3103C23.8503 15.8203 22.3803 15.8603 20.9603 15.9003C19.2503 15.9503 17.6403 15.9903 16.8203 16.8203C15.9903 17.6503 15.9503 19.2603 15.9003 20.9603C15.8603 22.3803 15.8203 23.8503 15.3103 25.0903C14.8203 26.2703 13.8303 27.3003 12.8803 28.3003C11.6703 29.5603 10.5303 30.7503 10.5303 32.0003C10.5303 33.2503 11.6703 34.4403 12.8803 35.7003C13.8403 36.7003 14.8203 37.7303 15.3103 38.9103C15.8203 40.1503 15.8603 41.6203 15.9003 43.0403C15.9503 44.7503 15.9903 46.3603 16.8203 47.1803C17.6503 48.0103 19.2603 48.0503 20.9603 48.1003C22.3803 48.1403 23.8503 48.1803 25.0903 48.6903C26.2703 49.1803 27.3003 50.1703 28.3003 51.1203C29.5603 52.3303 30.7503 53.4703 32.0003 53.4703C33.2503 53.4703 34.4403 52.3303 35.7003 51.1203C36.7003 50.1603 37.7303 49.1803 38.9103 48.6903C40.1503 48.1803 41.6203 48.1403 43.0403 48.1003C44.7503 48.0503 46.3603 48.0103 47.1803 47.1803C48.0103 46.3503 48.0503 44.7403 48.1003 43.0403C48.1403 41.6203 48.1803 40.1503 48.6903 38.9103C49.1803 37.7303 50.1703 36.7003 51.1203 35.7003C52.3303 34.4403 53.4703 33.2503 53.4703 32.0003C53.4703 30.7503 52.3303 29.5603 51.1203 28.3003C50.1603 27.3003 49.1803 26.2703 48.6903 25.0903C48.1803 23.8503 48.1403 22.3803 48.1003 20.9603C48.0503 19.2503 48.0103 17.6403 47.1803 16.8203C46.3503 15.9903 44.7403 15.9503 43.0403 15.9003C41.6203 15.8603 40.1503 15.8203 38.9103 15.3103C37.7303 14.8203 36.7003 13.8303 35.7003 12.8803C34.4403 11.6703 33.2503 10.5303 32.0003 10.5303Z" fill="black"/>
<path d="M29.9198 37.5597C29.0198 37.5597 28.0798 37.5097 27.0898 37.4097C26.6598 37.3697 26.3098 37.0497 26.2198 36.6297C26.1598 36.3497 24.7998 29.7597 28.8398 24.6897C31.6698 21.1297 36.3798 19.2797 42.8398 19.1797H42.8598C43.3398 19.1797 43.7598 19.5297 43.8398 19.9997C43.8998 20.3397 45.2898 28.4797 40.5198 33.6097C38.0798 36.2397 34.5298 37.5597 29.9198 37.5597ZM28.0698 35.4797C33.0198 35.8597 36.6998 34.7697 39.0498 32.2597C42.3198 28.7497 42.1698 23.2897 41.9698 21.1997C36.6098 21.4297 32.7298 23.0197 30.4098 25.9097C27.6798 29.3397 27.8698 33.7697 28.0698 35.4797Z" fill="black"/>
<path d="M22.8504 44.16C22.7204 44.16 22.5904 44.13 22.4604 44.08C21.9504 43.87 21.7104 43.28 21.9304 42.77C25.4304 34.46 34.6304 28.39 35.0204 28.14C35.4804 27.84 36.1004 27.97 36.4004 28.43C36.7004 28.89 36.5704 29.51 36.1104 29.81C36.0204 29.87 27.0304 35.81 23.7704 43.55C23.6104 43.93 23.2404 44.16 22.8504 44.16Z" fill="black"/>
</svg>
