<svg width="77" height="77" viewBox="0 0 77 77" fill="none" xmlns="http://www.w3.org/2000/svg">
<g clip-path="url(#clip0_633_7082)">
<path d="M66.109 59.8157C64.8041 59.8167 63.5283 59.4306 62.4429 58.7064C61.3575 57.9821 60.5113 56.9523 60.0113 55.747C59.5113 54.5418 59.38 53.2153 59.634 51.9355C59.888 50.6556 60.5158 49.4798 61.4381 48.5568C62.3605 47.6338 63.5358 47.0051 64.8155 46.7501C66.0952 46.4952 67.4217 46.6256 68.6273 47.1247C69.8329 47.6238 70.8634 48.4693 71.5885 49.5542C72.3135 50.639 72.7005 51.9145 72.7005 53.2194C72.6996 54.9677 72.0051 56.6443 70.7692 57.8811C69.5334 59.1178 67.8573 59.8136 66.109 59.8157ZM66.109 49.0293C65.28 49.0283 64.4695 49.2733 63.7798 49.7331C63.0901 50.1929 62.5523 50.847 62.2344 51.6126C61.9165 52.3781 61.8329 53.2208 61.994 54.0339C62.1551 54.847 62.5538 55.594 63.1396 56.1805C63.7254 56.767 64.472 57.1665 65.2849 57.3286C66.0979 57.4907 66.9406 57.408 67.7065 57.091C68.4724 56.774 69.1271 56.2369 69.5877 55.5478C70.0484 54.8586 70.2942 54.0483 70.2942 53.2194C70.2938 52.1091 69.8529 51.0443 69.0682 50.2587C68.2836 49.4732 67.2193 49.031 66.109 49.0293Z" fill="black"/>
<path d="M31.3488 59.8157C30.0439 59.817 28.768 59.4312 27.6824 58.7071C26.5968 57.9831 25.7503 56.9533 25.2501 55.7481C24.7498 54.5429 24.6183 53.2164 24.8721 51.9364C25.1259 50.6565 25.7536 49.4805 26.6758 48.5573C27.5981 47.6342 28.7734 47.0053 30.0532 46.7503C31.3329 46.4952 32.6596 46.6255 33.8653 47.1246C35.0709 47.6236 36.1015 48.4691 36.8266 49.554C37.5517 50.6389 37.9388 51.9145 37.9388 53.2194C37.9375 54.9673 37.243 56.6434 36.0076 57.88C34.7722 59.1166 33.0968 59.8127 31.3488 59.8157ZM31.3488 49.0293C30.5199 49.028 29.7091 49.2727 29.0192 49.7323C28.3293 50.192 27.7913 50.8459 27.4731 51.6115C27.155 52.377 27.0711 53.2197 27.2321 54.0329C27.393 54.8461 27.7916 55.5933 28.3773 56.1799C28.9631 56.7666 29.7097 57.1663 30.5226 57.3285C31.3356 57.4907 32.1784 57.4081 32.9444 57.0911C33.7104 56.7742 34.3652 56.2371 34.8259 55.5479C35.2866 54.8587 35.5325 54.0484 35.5325 53.2194C35.5317 52.1095 35.0908 51.0452 34.3066 50.2597C33.5224 49.4743 32.4588 49.0318 31.3488 49.0293Z" fill="black"/>
<path d="M74.7878 54.4226H71.4977C71.1786 54.4226 70.8725 54.2958 70.6469 54.0702C70.4213 53.8446 70.2945 53.5386 70.2945 53.2195C70.2945 52.9004 70.4213 52.5944 70.6469 52.3687C70.8725 52.1431 71.1786 52.0163 71.4977 52.0163H74.4477V45.6366C74.4469 44.774 74.2261 43.9259 73.806 43.1726L67.2931 31.4958C67.2375 31.3962 67.1563 31.3132 67.0579 31.2554C66.9595 31.1976 66.8474 31.1671 66.7333 31.167H57.8574V52.0212H60.7225C61.0416 52.0212 61.3476 52.1479 61.5732 52.3735C61.7988 52.5992 61.9256 52.9052 61.9256 53.2243C61.9256 53.5434 61.7988 53.8494 61.5732 54.075C61.3476 54.3007 61.0416 54.4274 60.7225 54.4274H56.6543C56.3352 54.4274 56.0292 54.3007 55.8036 54.075C55.5779 53.8494 55.4512 53.5434 55.4512 53.2243V29.9639C55.4512 29.6448 55.5779 29.3388 55.8036 29.1131C56.0292 28.8875 56.3352 28.7607 56.6543 28.7607H66.7333C67.2761 28.7605 67.8091 28.9052 68.2772 29.1798C68.7454 29.4545 69.1317 29.8492 69.3962 30.3232L75.9075 42.0015C76.5265 43.1131 76.8517 44.3642 76.8524 45.6366V52.358C76.8515 52.9053 76.6337 53.43 76.2467 53.817C75.8597 54.204 75.3351 54.4217 74.7878 54.4226Z" fill="black"/>
<path d="M25.9604 54.4228H14.4248C14.1057 54.4228 13.7997 54.296 13.5741 54.0704C13.3484 53.8447 13.2217 53.5387 13.2217 53.2196V43.9668C13.2217 43.6477 13.3484 43.3417 13.5741 43.1161C13.7997 42.8904 14.1057 42.7637 14.4248 42.7637C14.7439 42.7637 15.0499 42.8904 15.2755 43.1161C15.5012 43.3417 15.6279 43.6477 15.6279 43.9668V52.0165H25.9604C26.2795 52.0165 26.5855 52.1433 26.8111 52.3689C27.0367 52.5945 27.1635 52.9005 27.1635 53.2196C27.1635 53.5387 27.0367 53.8447 26.8111 54.0704C26.5855 54.296 26.2795 54.4228 25.9604 54.4228Z" fill="black"/>
<path d="M14.4248 39.6987C14.1057 39.6987 13.7997 39.5719 13.5741 39.3463C13.3484 39.1207 13.2217 38.8147 13.2217 38.4956V30.417C13.2217 30.0979 13.3484 29.7919 13.5741 29.5663C13.7997 29.3406 14.1057 29.2139 14.4248 29.2139C14.7439 29.2139 15.0499 29.3406 15.2755 29.5663C15.5012 29.7919 15.6279 30.0979 15.6279 30.417V38.5004C15.6267 38.8186 15.4993 39.1234 15.2738 39.348C15.0484 39.5726 14.7431 39.6987 14.4248 39.6987Z" fill="black"/>
<path d="M56.6545 54.4226H36.7356C36.4165 54.4226 36.1104 54.2959 35.8848 54.0702C35.6592 53.8446 35.5324 53.5386 35.5324 53.2195C35.5324 52.9004 35.6592 52.5944 35.8848 52.3688C36.1104 52.1431 36.4165 52.0164 36.7356 52.0164H55.4514V20.541H15.6279V25.4963C15.6279 25.8154 15.5012 26.1214 15.2755 26.347C15.0499 26.5727 14.7439 26.6994 14.4248 26.6994C14.1057 26.6994 13.7997 26.5727 13.5741 26.347C13.3484 26.1214 13.2217 25.8154 13.2217 25.4963V20.3196C13.2225 19.7402 13.4532 19.1847 13.8631 18.7751C14.273 18.3655 14.8287 18.1352 15.4082 18.1348H55.6727C56.2519 18.1356 56.8072 18.3661 57.2167 18.7756C57.6263 19.1852 57.8568 19.7404 57.8576 20.3196V53.2195C57.8576 53.5386 57.7309 53.8446 57.5052 54.0702C57.2796 54.2959 56.9736 54.4226 56.6545 54.4226Z" fill="black"/>
<path d="M19.1812 45.1699H3.91113C3.59204 45.1699 3.28602 45.0432 3.0604 44.8175C2.83477 44.5919 2.70801 44.2859 2.70801 43.9668C2.70801 43.6477 2.83477 43.3417 3.0604 43.1161C3.28602 42.8904 3.59204 42.7637 3.91113 42.7637H19.1812C19.5003 42.7637 19.8063 42.8904 20.0319 43.1161C20.2576 43.3417 20.3843 43.6477 20.3843 43.9668C20.3843 44.2859 20.2576 44.5919 20.0319 44.8175C19.8063 45.0432 19.5003 45.1699 19.1812 45.1699Z" fill="black"/>
<path d="M31.3482 39.6982H10.04C9.72095 39.6982 9.41493 39.5715 9.1893 39.3459C8.96367 39.1202 8.83691 38.8142 8.83691 38.4951C8.83691 38.176 8.96367 37.87 9.1893 37.6444C9.41493 37.4187 9.72095 37.292 10.04 37.292H31.3482C31.6673 37.292 31.9733 37.4187 32.1989 37.6444C32.4246 37.87 32.5513 38.176 32.5513 38.4951C32.5513 38.8142 32.4246 39.1202 32.1989 39.3459C31.9733 39.5715 31.6673 39.6982 31.3482 39.6982Z" fill="black"/>
<path d="M9.37843 33.3457H1.05762C0.738529 33.3457 0.432509 33.2189 0.206879 32.9933C-0.0187504 32.7677 -0.145508 32.4617 -0.145508 32.1426C-0.145508 31.8235 -0.0187504 31.5175 0.206879 31.2918C0.432509 31.0662 0.738529 30.9395 1.05762 30.9395H9.37843C9.69752 30.9395 10.0035 31.0662 10.2292 31.2918C10.4548 31.5175 10.5816 31.8235 10.5816 32.1426C10.5816 32.4617 10.4548 32.7677 10.2292 32.9933C10.0035 33.2189 9.69752 33.3457 9.37843 33.3457Z" fill="black"/>
<path d="M22.72 26.7002H8.03223C7.71314 26.7002 7.40712 26.5734 7.18149 26.3478C6.95586 26.1222 6.8291 25.8162 6.8291 25.4971C6.8291 25.178 6.95586 24.872 7.18149 24.6463C7.40712 24.4207 7.71314 24.2939 8.03223 24.2939H22.72C23.0391 24.2939 23.3451 24.4207 23.5707 24.6463C23.7963 24.872 23.9231 25.178 23.9231 25.4971C23.9231 25.8162 23.7963 26.1222 23.5707 26.3478C23.3451 26.5734 23.0391 26.7002 22.72 26.7002Z" fill="black"/>
</g>
<defs>
<clipPath id="clip0_633_7082">
<rect width="77" height="77" fill="white"/>
</clipPath>
</defs>
</svg>
